<svg width="24" height="26" viewBox="0 0 24 26" fill="none" xmlns="http://www.w3.org/2000/svg">
<path d="M12 8.04663C9.26833 8.04663 7.04605 10.2689 7.04605 13.0004C7.04605 15.7321 9.26833 17.9543 12 17.9543C14.7315 17.9543 16.9538 15.7321 16.9538 13.0004C16.9538 10.2689 14.7315 8.04663 12 8.04663ZM14.9411 12.0675L11.3922 15.6164C11.2432 15.7654 11.0479 15.84 10.8527 15.84C10.6575 15.84 10.4623 15.7656 10.3133 15.6164L8.95709 14.2602C8.65915 13.9624 8.65915 13.4794 8.95709 13.1815C9.25484 12.8835 9.73785 12.8835 10.0358 13.1815L10.8527 13.9984L13.8624 10.9888C14.1602 10.6908 14.6432 10.6908 14.9411 10.9888C15.2391 11.2865 15.2391 11.7695 14.9411 12.0675Z" fill="#03A678"/>
<path d="M23.0444 7.0544L23.0436 7.03416C23.0323 6.78442 23.0247 6.5202 23.0202 6.22623C22.999 4.79265 21.8594 3.60684 20.4256 3.5267C17.4362 3.35987 15.1237 2.38511 13.1478 0.459201L13.131 0.443133C12.4865 -0.147792 11.5143 -0.147792 10.8696 0.443133L10.8527 0.459201C8.87685 2.38511 6.56432 3.35987 3.57498 3.5269C2.14141 3.60684 1.00161 4.79265 0.980383 6.22643C0.976019 6.51842 0.968283 6.78264 0.956976 7.03416L0.955786 7.08118C0.897665 10.1294 0.825461 13.9231 2.09459 17.3665C2.79244 19.2601 3.84932 20.9061 5.23568 22.2592C6.81466 23.8001 8.8828 25.0234 11.3826 25.895C11.4639 25.9233 11.5484 25.9464 11.6345 25.9636C11.7559 25.9878 11.8781 25.9999 12.0003 25.9999C12.1225 25.9999 12.2449 25.9878 12.3661 25.9636C12.4522 25.9464 12.5373 25.9232 12.619 25.8946C15.1158 25.0214 17.1817 23.7975 18.7593 22.2568C20.1451 20.9034 21.202 19.2569 21.9004 17.363C23.1743 13.9093 23.1023 10.1084 23.0444 7.0544ZM11.9999 19.4799C8.42696 19.4799 5.52033 16.5733 5.52033 13.0003C5.52033 9.42742 8.42696 6.5208 11.9999 6.5208C15.5726 6.5208 18.4794 9.42742 18.4794 13.0003C18.4794 16.5733 15.5726 19.4799 11.9999 19.4799Z" fill="#03A678"/>
</svg>
