<svg width="18" height="18" viewBox="0 0 18 18" fill="none" xmlns="http://www.w3.org/2000/svg">
<path d="M17.9531 6.90472C17.8352 6.54024 17.512 6.28137 17.1295 6.2469L11.9342 5.77516L9.87984 0.966735C9.72836 0.61434 9.38339 0.38623 9.00009 0.38623C8.61679 0.38623 8.27182 0.61434 8.12034 0.967559L6.06598 5.77516L0.869862 6.2469C0.488078 6.28219 0.165621 6.54024 0.0471028 6.90472C-0.0714152 7.2692 0.0380389 7.66898 0.326849 7.92098L4.25388 11.365L3.09589 16.466C3.01115 16.841 3.15672 17.2287 3.46792 17.4536C3.63519 17.5745 3.83089 17.636 4.02824 17.636C4.19839 17.636 4.36717 17.5902 4.51865 17.4995L9.00009 14.8211L13.4799 17.4995C13.8077 17.6967 14.2209 17.6787 14.5314 17.4536C14.8428 17.228 14.9882 16.8402 14.9035 16.466L13.7455 11.365L17.6725 7.92167C17.9613 7.66898 18.0716 7.26989 17.9531 6.90472Z" fill="#FFC93C"/>
</svg>
